<svg width="237" height="41" viewBox="0 0 237 41" fill="none" xmlns="http://www.w3.org/2000/svg">
<g clip-path="url(#clip0_25_341)">
<path d="M20.0001 0.5C12.6482 0.5 6.66675 6.48149 6.66675 13.8334C6.66675 16.0404 7.21854 18.2287 8.26753 20.1696L19.271 40.0703C19.4175 40.3356 19.6966 40.5 20.0001 40.5C20.3036 40.5 20.5828 40.3356 20.7292 40.0703L31.7367 20.163C32.7817 18.2287 33.3335 16.0403 33.3335 13.8333C33.3335 6.48148 27.352 0.5 20.0001 0.5ZM20.0001 20.5C16.3242 20.5 13.3335 17.5093 13.3335 13.8334C13.3335 10.1574 16.3242 7.16672 20.0001 7.16672C23.676 7.16672 26.6667 10.1574 26.6667 13.8334C26.6667 17.5093 23.676 20.5 20.0001 20.5Z" fill="#3C3F41"/>
</g>
<path d="M57.4 28V13.6H58.75L64.41 25.71L70.04 13.6H71.41V27.99H70.01V16.88L64.88 28H63.93L58.81 16.88V28H57.4ZM77.3064 28.3C76.4931 28.3 75.8097 28.1533 75.2564 27.86C74.7097 27.5667 74.2997 27.1767 74.0264 26.69C73.7531 26.2033 73.6164 25.6733 73.6164 25.1C73.6164 24.5133 73.7331 24.0133 73.9664 23.6C74.2064 23.18 74.5297 22.8367 74.9364 22.57C75.3497 22.3033 75.8264 22.1 76.3664 21.96C76.9131 21.8267 77.5164 21.71 78.1764 21.61C78.8431 21.5033 79.4931 21.4133 80.1264 21.34C80.7664 21.26 81.3264 21.1833 81.8064 21.11L81.2864 21.43C81.3064 20.3633 81.0997 19.5733 80.6664 19.06C80.2331 18.5467 79.4797 18.29 78.4064 18.29C77.6664 18.29 77.0397 18.4567 76.5264 18.79C76.0197 19.1233 75.6631 19.65 75.4564 20.37L74.0264 19.95C74.2731 18.9833 74.7697 18.2333 75.5164 17.7C76.2631 17.1667 77.2331 16.9 78.4264 16.9C79.4131 16.9 80.2497 17.0867 80.9364 17.46C81.6297 17.8267 82.1197 18.36 82.4064 19.06C82.5397 19.3733 82.6264 19.7233 82.6664 20.11C82.7064 20.4967 82.7264 20.89 82.7264 21.29V28H81.4164V25.29L81.7964 25.45C81.4297 26.3767 80.8597 27.0833 80.0864 27.57C79.3131 28.0567 78.3864 28.3 77.3064 28.3ZM77.4764 27.03C78.1631 27.03 78.7631 26.9067 79.2764 26.66C79.7897 26.4133 80.2031 26.0767 80.5164 25.65C80.8297 25.2167 81.0331 24.73 81.1264 24.19C81.2064 23.8433 81.2497 23.4633 81.2564 23.05C81.2631 22.63 81.2664 22.3167 81.2664 22.11L81.8264 22.4C81.3264 22.4667 80.7831 22.5333 80.1964 22.6C79.6164 22.6667 79.0431 22.7433 78.4764 22.83C77.9164 22.9167 77.4097 23.02 76.9564 23.14C76.6497 23.2267 76.3531 23.35 76.0664 23.51C75.7797 23.6633 75.5431 23.87 75.3564 24.13C75.1764 24.39 75.0864 24.7133 75.0864 25.1C75.0864 25.4133 75.1631 25.7167 75.3164 26.01C75.4764 26.3033 75.7297 26.5467 76.0764 26.74C76.4297 26.9333 76.8964 27.03 77.4764 27.03ZM85.5297 28V13.3H86.9997V28H85.5297ZM93.0877 28.3C92.2743 28.3 91.591 28.1533 91.0377 27.86C90.491 27.5667 90.081 27.1767 89.8077 26.69C89.5343 26.2033 89.3977 25.6733 89.3977 25.1C89.3977 24.5133 89.5143 24.0133 89.7477 23.6C89.9877 23.18 90.311 22.8367 90.7177 22.57C91.131 22.3033 91.6077 22.1 92.1477 21.96C92.6943 21.8267 93.2977 21.71 93.9577 21.61C94.6243 21.5033 95.2743 21.4133 95.9077 21.34C96.5477 21.26 97.1077 21.1833 97.5877 21.11L97.0677 21.43C97.0877 20.3633 96.881 19.5733 96.4477 19.06C96.0143 18.5467 95.261 18.29 94.1877 18.29C93.4477 18.29 92.821 18.4567 92.3077 18.79C91.801 19.1233 91.4443 19.65 91.2377 20.37L89.8077 19.95C90.0543 18.9833 90.551 18.2333 91.2977 17.7C92.0443 17.1667 93.0143 16.9 94.2077 16.9C95.1943 16.9 96.031 17.0867 96.7177 17.46C97.411 17.8267 97.901 18.36 98.1877 19.06C98.321 19.3733 98.4077 19.7233 98.4477 20.11C98.4877 20.4967 98.5077 20.89 98.5077 21.29V28H97.1977V25.29L97.5777 25.45C97.211 26.3767 96.641 27.0833 95.8677 27.57C95.0943 28.0567 94.1677 28.3 93.0877 28.3ZM93.2577 27.03C93.9443 27.03 94.5443 26.9067 95.0577 26.66C95.571 26.4133 95.9843 26.0767 96.2977 25.65C96.611 25.2167 96.8143 24.73 96.9077 24.19C96.9877 23.8433 97.031 23.4633 97.0377 23.05C97.0443 22.63 97.0477 22.3167 97.0477 22.11L97.6077 22.4C97.1077 22.4667 96.5643 22.5333 95.9777 22.6C95.3977 22.6667 94.8243 22.7433 94.2577 22.83C93.6977 22.9167 93.191 23.02 92.7377 23.14C92.431 23.2267 92.1343 23.35 91.8477 23.51C91.561 23.6633 91.3243 23.87 91.1377 24.13C90.9577 24.39 90.8677 24.7133 90.8677 25.1C90.8677 25.4133 90.9443 25.7167 91.0977 26.01C91.2577 26.3033 91.511 26.5467 91.8577 26.74C92.211 26.9333 92.6777 27.03 93.2577 27.03ZM113.991 28L114.001 20.91C114.001 20.0767 113.768 19.4233 113.301 18.95C112.841 18.47 112.254 18.23 111.541 18.23C111.134 18.23 110.738 18.3233 110.351 18.51C109.964 18.6967 109.644 18.9967 109.391 19.41C109.144 19.8233 109.021 20.3633 109.021 21.03L108.151 20.78C108.131 20.0067 108.281 19.33 108.601 18.75C108.928 18.17 109.374 17.72 109.941 17.4C110.514 17.0733 111.161 16.91 111.881 16.91C112.968 16.91 113.838 17.2467 114.491 17.92C115.144 18.5867 115.471 19.49 115.471 20.63L115.461 28H113.991ZM101.101 28V17.2H102.421V19.86H102.581V28H101.101ZM107.561 28L107.571 21.01C107.571 20.15 107.341 19.4733 106.881 18.98C106.428 18.48 105.828 18.23 105.081 18.23C104.334 18.23 103.731 18.4867 103.271 19C102.811 19.5067 102.581 20.1833 102.581 21.03L101.701 20.55C101.701 19.8567 101.864 19.2367 102.191 18.69C102.518 18.1367 102.964 17.7033 103.531 17.39C104.098 17.07 104.741 16.91 105.461 16.91C106.148 16.91 106.758 17.0567 107.291 17.35C107.831 17.6433 108.254 18.07 108.561 18.63C108.868 19.19 109.021 19.87 109.021 20.67L109.011 28H107.561ZM122.914 28.3C121.921 28.3 121.081 28.05 120.394 27.55C119.707 27.0433 119.187 26.36 118.834 25.5C118.481 24.6333 118.304 23.6633 118.304 22.59C118.304 21.4967 118.481 20.5233 118.834 19.67C119.194 18.81 119.721 18.1333 120.414 17.64C121.107 17.1467 121.961 16.9 122.974 16.9C123.961 16.9 124.807 17.15 125.514 17.65C126.221 18.15 126.761 18.83 127.134 19.69C127.514 20.55 127.704 21.5167 127.704 22.59C127.704 23.67 127.514 24.64 127.134 25.5C126.754 26.36 126.207 27.0433 125.494 27.55C124.781 28.05 123.921 28.3 122.914 28.3ZM118.054 28V13.6H119.534V19.87H119.374V28H118.054ZM122.764 26.93C123.517 26.93 124.144 26.74 124.644 26.36C125.144 25.98 125.517 25.4633 125.764 24.81C126.017 24.15 126.144 23.41 126.144 22.59C126.144 21.7767 126.021 21.0433 125.774 20.39C125.527 19.7367 125.151 19.22 124.644 18.84C124.144 18.46 123.507 18.27 122.734 18.27C121.981 18.27 121.354 18.4533 120.854 18.82C120.361 19.1867 119.991 19.6967 119.744 20.35C119.497 20.9967 119.374 21.7433 119.374 22.59C119.374 23.4233 119.497 24.17 119.744 24.83C119.991 25.4833 120.364 25.9967 120.864 26.37C121.364 26.7433 121.997 26.93 122.764 26.93ZM134.41 28.3C133.337 28.3 132.42 28.0567 131.66 27.57C130.9 27.0833 130.317 26.41 129.91 25.55C129.503 24.69 129.3 23.7033 129.3 22.59C129.3 21.4567 129.507 20.4633 129.92 19.61C130.333 18.7567 130.92 18.0933 131.68 17.62C132.447 17.14 133.357 16.9 134.41 16.9C135.49 16.9 136.41 17.1433 137.17 17.63C137.937 18.11 138.52 18.78 138.92 19.64C139.327 20.4933 139.53 21.4767 139.53 22.59C139.53 23.7233 139.327 24.72 138.92 25.58C138.513 26.4333 137.927 27.1 137.16 27.58C136.393 28.06 135.477 28.3 134.41 28.3ZM134.41 26.89C135.61 26.89 136.503 26.4933 137.09 25.7C137.677 24.9 137.97 23.8633 137.97 22.59C137.97 21.2833 137.673 20.2433 137.08 19.47C136.493 18.6967 135.603 18.31 134.41 18.31C133.603 18.31 132.937 18.4933 132.41 18.86C131.89 19.22 131.5 19.7233 131.24 20.37C130.987 21.01 130.86 21.75 130.86 22.59C130.86 23.89 131.16 24.9333 131.76 25.72C132.36 26.5 133.243 26.89 134.41 26.89ZM141.145 30.09L141.235 29.36C141.502 29.38 141.695 29.3267 141.815 29.2C141.935 29.0733 142.009 28.9033 142.035 28.69C142.062 28.4767 142.069 28.2467 142.055 28H141.145V25.89H142.855V28.4C142.855 29.0133 142.699 29.4733 142.385 29.78C142.079 30.0867 141.665 30.19 141.145 30.09ZM156.492 28.3C155.058 28.3 153.848 27.9833 152.862 27.35C151.875 26.71 151.128 25.8267 150.622 24.7C150.115 23.5733 149.862 22.2733 149.862 20.8C149.862 19.3267 150.115 18.0267 150.622 16.9C151.128 15.7733 151.875 14.8933 152.862 14.26C153.848 13.62 155.058 13.3 156.492 13.3C158.165 13.3 159.532 13.73 160.592 14.59C161.652 15.4433 162.378 16.59 162.772 18.03L161.272 18.42C160.965 17.28 160.415 16.3767 159.622 15.71C158.828 15.0433 157.785 14.71 156.492 14.71C155.365 14.71 154.428 14.9667 153.682 15.48C152.935 15.9933 152.372 16.71 151.992 17.63C151.618 18.5433 151.425 19.6 151.412 20.8C151.405 22 151.588 23.0567 151.962 23.97C152.342 24.8833 152.908 25.6 153.662 26.12C154.422 26.6333 155.365 26.89 156.492 26.89C157.785 26.89 158.828 26.5567 159.622 25.89C160.415 25.2167 160.965 24.3133 161.272 23.18L162.772 23.57C162.378 25.01 161.652 26.16 160.592 27.02C159.532 27.8733 158.165 28.3 156.492 28.3ZM169.488 28.3C168.415 28.3 167.498 28.0567 166.738 27.57C165.978 27.0833 165.395 26.41 164.988 25.55C164.581 24.69 164.378 23.7033 164.378 22.59C164.378 21.4567 164.585 20.4633 164.998 19.61C165.411 18.7567 165.998 18.0933 166.758 17.62C167.525 17.14 168.435 16.9 169.488 16.9C170.568 16.9 171.488 17.1433 172.248 17.63C173.015 18.11 173.598 18.78 173.998 19.64C174.405 20.4933 174.608 21.4767 174.608 22.59C174.608 23.7233 174.405 24.72 173.998 25.58C173.591 26.4333 173.005 27.1 172.238 27.58C171.471 28.06 170.555 28.3 169.488 28.3ZM169.488 26.89C170.688 26.89 171.581 26.4933 172.168 25.7C172.755 24.9 173.048 23.8633 173.048 22.59C173.048 21.2833 172.751 20.2433 172.158 19.47C171.571 18.6967 170.681 18.31 169.488 18.31C168.681 18.31 168.015 18.4933 167.488 18.86C166.968 19.22 166.578 19.7233 166.318 20.37C166.065 21.01 165.938 21.75 165.938 22.59C165.938 23.89 166.238 24.9333 166.838 25.72C167.438 26.5 168.321 26.89 169.488 26.89ZM177.014 28V13.3H178.484V28H177.014ZM185.992 28.3C184.919 28.3 184.002 28.0567 183.242 27.57C182.482 27.0833 181.899 26.41 181.492 25.55C181.085 24.69 180.882 23.7033 180.882 22.59C180.882 21.4567 181.089 20.4633 181.502 19.61C181.915 18.7567 182.502 18.0933 183.262 17.62C184.029 17.14 184.939 16.9 185.992 16.9C187.072 16.9 187.992 17.1433 188.752 17.63C189.519 18.11 190.102 18.78 190.502 19.64C190.909 20.4933 191.112 21.4767 191.112 22.59C191.112 23.7233 190.909 24.72 190.502 25.58C190.095 26.4333 189.509 27.1 188.742 27.58C187.975 28.06 187.059 28.3 185.992 28.3ZM185.992 26.89C187.192 26.89 188.085 26.4933 188.672 25.7C189.259 24.9 189.552 23.8633 189.552 22.59C189.552 21.2833 189.255 20.2433 188.662 19.47C188.075 18.6967 187.185 18.31 185.992 18.31C185.185 18.31 184.519 18.4933 183.992 18.86C183.472 19.22 183.082 19.7233 182.822 20.37C182.569 21.01 182.442 21.75 182.442 22.59C182.442 23.89 182.742 24.9333 183.342 25.72C183.942 26.5 184.825 26.89 185.992 26.89ZM206.198 28L206.208 20.91C206.208 20.0767 205.975 19.4233 205.508 18.95C205.048 18.47 204.461 18.23 203.748 18.23C203.341 18.23 202.945 18.3233 202.558 18.51C202.171 18.6967 201.851 18.9967 201.598 19.41C201.351 19.8233 201.228 20.3633 201.228 21.03L200.358 20.78C200.338 20.0067 200.488 19.33 200.808 18.75C201.135 18.17 201.581 17.72 202.148 17.4C202.721 17.0733 203.368 16.91 204.088 16.91C205.175 16.91 206.045 17.2467 206.698 17.92C207.351 18.5867 207.678 19.49 207.678 20.63L207.668 28H206.198ZM193.308 28V17.2H194.628V19.86H194.788V28H193.308ZM199.768 28L199.778 21.01C199.778 20.15 199.548 19.4733 199.088 18.98C198.635 18.48 198.035 18.23 197.288 18.23C196.541 18.23 195.938 18.4867 195.478 19C195.018 19.5067 194.788 20.1833 194.788 21.03L193.908 20.55C193.908 19.8567 194.071 19.2367 194.398 18.69C194.725 18.1367 195.171 17.7033 195.738 17.39C196.305 17.07 196.948 16.91 197.668 16.91C198.355 16.91 198.965 17.0567 199.498 17.35C200.038 17.6433 200.461 18.07 200.768 18.63C201.075 19.19 201.228 19.87 201.228 20.67L201.218 28H199.768ZM215.121 28.3C214.128 28.3 213.288 28.05 212.601 27.55C211.914 27.0433 211.394 26.36 211.041 25.5C210.688 24.6333 210.511 23.6633 210.511 22.59C210.511 21.4967 210.688 20.5233 211.041 19.67C211.401 18.81 211.928 18.1333 212.621 17.64C213.314 17.1467 214.168 16.9 215.181 16.9C216.168 16.9 217.014 17.15 217.721 17.65C218.428 18.15 218.968 18.83 219.341 19.69C219.721 20.55 219.911 21.5167 219.911 22.59C219.911 23.67 219.721 24.64 219.341 25.5C218.961 26.36 218.414 27.0433 217.701 27.55C216.988 28.05 216.128 28.3 215.121 28.3ZM210.261 28V13.6H211.741V19.87H211.581V28H210.261ZM214.971 26.93C215.724 26.93 216.351 26.74 216.851 26.36C217.351 25.98 217.724 25.4633 217.971 24.81C218.224 24.15 218.351 23.41 218.351 22.59C218.351 21.7767 218.228 21.0433 217.981 20.39C217.734 19.7367 217.358 19.22 216.851 18.84C216.351 18.46 215.714 18.27 214.941 18.27C214.188 18.27 213.561 18.4533 213.061 18.82C212.568 19.1867 212.198 19.6967 211.951 20.35C211.704 20.9967 211.581 21.7433 211.581 22.59C211.581 23.4233 211.704 24.17 211.951 24.83C212.198 25.4833 212.571 25.9967 213.071 26.37C213.571 26.7433 214.204 26.93 214.971 26.93ZM222.307 15.15V13.5H223.777V15.15H222.307ZM222.307 28V17.2H223.777V28H222.307ZM229.865 28.3C229.052 28.3 228.368 28.1533 227.815 27.86C227.268 27.5667 226.858 27.1767 226.585 26.69C226.312 26.2033 226.175 25.6733 226.175 25.1C226.175 24.5133 226.292 24.0133 226.525 23.6C226.765 23.18 227.088 22.8367 227.495 22.57C227.908 22.3033 228.385 22.1 228.925 21.96C229.472 21.8267 230.075 21.71 230.735 21.61C231.402 21.5033 232.052 21.4133 232.685 21.34C233.325 21.26 233.885 21.1833 234.365 21.11L233.845 21.43C233.865 20.3633 233.658 19.5733 233.225 19.06C232.792 18.5467 232.038 18.29 230.965 18.29C230.225 18.29 229.598 18.4567 229.085 18.79C228.578 19.1233 228.222 19.65 228.015 20.37L226.585 19.95C226.832 18.9833 227.328 18.2333 228.075 17.7C228.822 17.1667 229.792 16.9 230.985 16.9C231.972 16.9 232.808 17.0867 233.495 17.46C234.188 17.8267 234.678 18.36 234.965 19.06C235.098 19.3733 235.185 19.7233 235.225 20.11C235.265 20.4967 235.285 20.89 235.285 21.29V28H233.975V25.29L234.355 25.45C233.988 26.3767 233.418 27.0833 232.645 27.57C231.872 28.0567 230.945 28.3 229.865 28.3ZM230.035 27.03C230.722 27.03 231.322 26.9067 231.835 26.66C232.348 26.4133 232.762 26.0767 233.075 25.65C233.388 25.2167 233.592 24.73 233.685 24.19C233.765 23.8433 233.808 23.4633 233.815 23.05C233.822 22.63 233.825 22.3167 233.825 22.11L234.385 22.4C233.885 22.4667 233.342 22.5333 232.755 22.6C232.175 22.6667 231.602 22.7433 231.035 22.83C230.475 22.9167 229.968 23.02 229.515 23.14C229.208 23.2267 228.912 23.35 228.625 23.51C228.338 23.6633 228.102 23.87 227.915 24.13C227.735 24.39 227.645 24.7133 227.645 25.1C227.645 25.4133 227.722 25.7167 227.875 26.01C228.035 26.3033 228.288 26.5467 228.635 26.74C228.988 26.9333 229.455 27.03 230.035 27.03Z" fill="#3C3F41"/>
<defs>
<clipPath id="clip0_25_341">
<rect width="40" height="40" fill="white" transform="translate(0 0.5)"/>
</clipPath>
</defs>
</svg>
